<svg width="17" height="17" viewBox="0 0 17 17" fill="none" xmlns="http://www.w3.org/2000/svg">
<path d="M8.5 1.41663C4.58788 1.41663 1.41667 4.58783 1.41667 8.49996C1.41667 12.4121 4.58788 15.5833 8.5 15.5833C12.4121 15.5833 15.5833 12.4121 15.5833 8.49996C15.5833 4.58783 12.4121 1.41663 8.5 1.41663ZM12.5425 6.87575L7.58413 11.8341C7.446 11.9722 7.26467 12.0416 7.08334 12.0416C6.902 12.0416 6.72067 11.9722 6.58255 11.8341L4.45755 9.70908C4.18059 9.43213 4.18059 8.98446 4.45755 8.7075C4.73451 8.43054 5.18217 8.43054 5.45913 8.7075L7.08334 10.3317L11.5409 5.87417C11.8178 5.59721 12.2655 5.59721 12.5425 5.87417C12.8194 6.15113 12.8194 6.59879 12.5425 6.87575Z" fill="#228BE6"/>
</svg>
